<svg version="1.1" xmlns="http://www.w3.org/2000/svg" xmlns:xlink="http://www.w3.org/1999/xlink" width="717" height="781"><defs/><g><g><rect fill="#FFFFFF00" stroke="none" x="112" y="8" width="512" height="728" transform="matrix(1 0 0 1 -30 2)"/></g><g><path fill="none" stroke="#000000" paint-order="fill stroke markers" d=" M 82 10 L 594 10 L 594 738 L 82 738 L 82 10 Z Z" stroke-miterlimit="10" stroke-dasharray=""/></g><g><path fill="#ffffff" stroke="none" paint-order="stroke fill markers" d=" M 28.189541015624997 227.85 C 28.189541015624997 222.96227952 32.147343383625 219 37.029541015625 219 C 41.911738647625 219 45.869541015625 222.96227952 45.869541015625 227.85 C 45.869541015625 232.73772047999998 41.911738647625 236.7 37.029541015625 236.7 C 32.147343383625 236.7 28.189541015624997 232.73772047999998 28.189541015624997 227.85 Z"/></g><g><path fill="none" stroke="#000000" paint-order="fill stroke markers" d=" M 28.189541015624997 227.85 C 28.189541015624997 222.96227952 32.147343383625 219 37.029541015625 219 C 41.911738647625 219 45.869541015625 222.96227952 45.869541015625 227.85 C 45.869541015625 232.73772047999998 41.911738647625 236.7 37.029541015625 236.7 C 32.147343383625 236.7 28.189541015624997 232.73772047999998 28.189541015624997 227.85 Z" stroke-miterlimit="10" stroke-dasharray=""/></g><g><path fill="none" stroke="#000000" paint-order="fill stroke markers" d=" M 37.029541015625 236.7 L 37.029541015625 254.3" stroke-miterlimit="10" stroke-dasharray=""/></g><g><path fill="none" stroke="#000000" paint-order="fill stroke markers" d=" M 27.669541015625 243.3 L 46.389541015625 243.3" stroke-miterlimit="10" stroke-dasharray=""/></g><g><path fill="none" stroke="#000000" paint-order="fill stroke markers" d=" M 37.029541015625 254.3 L 24.029541015625 272" stroke-miterlimit="10" stroke-dasharray=""/></g><g><path fill="none" stroke="#000000" paint-order="fill stroke markers" d=" M 37.029541015625 254.3 L 50.029541015625 272" stroke-miterlimit="10" stroke-dasharray=""/></g><g><g><path fill="none" stroke="none"/><text fill="#000000" stroke="none" font-family="Arial" font-size="13px" font-style="normal" font-weight="bold" text-decoration="undefined" x="67.529541015625" y="284.5" text-anchor="middle" dominant-baseline="central" transform="matrix(1 0 0 1 -30 2)">Athlete</text></g></g><g><path fill="#ffffff" stroke="none" paint-order="stroke fill markers" d=" M 27.837246093749997 499.85 C 27.837246093749997 494.96227952000004 31.79504846175 491 36.67724609375 491 C 41.55944372575 491 45.51724609375 494.96227952000004 45.51724609375 499.85 C 45.51724609375 504.73772048 41.55944372575 508.7 36.67724609375 508.7 C 31.79504846175 508.7 27.837246093749997 504.73772048 27.837246093749997 499.85 Z"/></g><g><path fill="none" stroke="#000000" paint-order="fill stroke markers" d=" M 27.837246093749997 499.85 C 27.837246093749997 494.96227952000004 31.79504846175 491 36.67724609375 491 C 41.55944372575 491 45.51724609375 494.96227952000004 45.51724609375 499.85 C 45.51724609375 504.73772048 41.55944372575 508.7 36.67724609375 508.7 C 31.79504846175 508.7 27.837246093749997 504.73772048 27.837246093749997 499.85 Z" stroke-miterlimit="10" stroke-dasharray=""/></g><g><path fill="none" stroke="#000000" paint-order="fill stroke markers" d=" M 36.67724609375 508.7 L 36.67724609375 526.3" stroke-miterlimit="10" stroke-dasharray=""/></g><g><path fill="none" stroke="#000000" paint-order="fill stroke markers" d=" M 27.31724609375 515.3 L 46.03724609375 515.3" stroke-miterlimit="10" stroke-dasharray=""/></g><g><path fill="none" stroke="#000000" paint-order="fill stroke markers" d=" M 36.67724609375 526.3 L 23.67724609375 544" stroke-miterlimit="10" stroke-dasharray=""/></g><g><path fill="none" stroke="#000000" paint-order="fill stroke markers" d=" M 36.67724609375 526.3 L 49.67724609375 544" stroke-miterlimit="10" stroke-dasharray=""/></g><g><g><path fill="none" stroke="none"/><text fill="#000000" stroke="none" font-family="Arial" font-size="13px" font-style="normal" font-weight="bold" text-decoration="undefined" x="67.17724609375" y="556.5" text-anchor="middle" dominant-baseline="central" transform="matrix(1 0 0 1 -30 2)">Trainer</text></g></g><g><path fill="#C0C0C0" stroke="none" paint-order="stroke fill markers" d=" M 201 181 C 201 161.1177472 227.862912 145 261 145 C 294.137088 145 321 161.1177472 321 181 C 321 200.8822528 294.137088 217 261 217 C 227.862912 217 201 200.8822528 201 181 Z" fill-opacity="0.2"/></g><g><path fill="#ffffff" stroke="none" paint-order="stroke fill markers" d=" M 194 174 C 194 154.1177472 220.862912 138 254 138 C 287.137088 138 314 154.1177472 314 174 C 314 193.8822528 287.137088 210 254 210 C 220.862912 210 194 193.8822528 194 174 Z"/></g><g><path fill="none" stroke="#000000" paint-order="fill stroke markers" d=" M 194 174 C 194 154.1177472 220.862912 138 254 138 C 287.137088 138 314 154.1177472 314 174 C 314 193.8822528 287.137088 210 254 210 C 220.862912 210 194 193.8822528 194 174 Z" stroke-miterlimit="10" stroke-dasharray=""/></g><g><g><path fill="none" stroke="none"/><text fill="#000000" stroke="none" font-family="Arial" font-size="13px" font-style="normal" font-weight="bold" text-decoration="undefined" x="284" y="160" text-anchor="middle" dominant-baseline="central" transform="matrix(1 0 0 1 -30 2)">View</text><text fill="#000000" stroke="none" font-family="Arial" font-size="13px" font-style="normal" font-weight="bold" text-decoration="undefined" x="284" y="173" text-anchor="middle" dominant-baseline="central" transform="matrix(1 0 0 1 -30 2)">Workout</text><text fill="#000000" stroke="none" font-family="Arial" font-size="13px" font-style="normal" font-weight="bold" text-decoration="undefined" x="284" y="186" text-anchor="middle" dominant-baseline="central" transform="matrix(1 0 0 1 -30 2)">Plan*</text></g></g><g><path fill="none" stroke="#000000" paint-order="fill stroke markers" d=" M 65 247 L 193 198" stroke-miterlimit="10" stroke-dasharray=""/></g><g><path fill="none" stroke="#000000" paint-order="fill stroke markers" d=" M 185.01394327011232 205.5645818064858 L 193 198 L 182.00403803914946 197.70197222356245" stroke-miterlimit="10" stroke-dasharray=""/></g><g><path fill="#C0C0C0" stroke="none" paint-order="stroke fill markers" d=" M 441 181 C 441 161.1177472 467.862912 145 501 145 C 534.137088 145 561 161.1177472 561 181 C 561 200.8822528 534.137088 217 501 217 C 467.862912 217 441 200.8822528 441 181 Z" fill-opacity="0.2"/></g><g><path fill="#ffffff" stroke="none" paint-order="stroke fill markers" d=" M 434 174 C 434 154.1177472 460.862912 138 494 138 C 527.137088 138 554 154.1177472 554 174 C 554 193.8822528 527.137088 210 494 210 C 460.862912 210 434 193.8822528 434 174 Z"/></g><g><path fill="none" stroke="#000000" paint-order="fill stroke markers" d=" M 434 174 C 434 154.1177472 460.862912 138 494 138 C 527.137088 138 554 154.1177472 554 174 C 554 193.8822528 527.137088 210 494 210 C 460.862912 210 434 193.8822528 434 174 Z" stroke-miterlimit="10" stroke-dasharray=""/></g><g><g><path fill="none" stroke="none"/><text fill="#000000" stroke="none" font-family="Arial" font-size="13px" font-style="normal" font-weight="bold" text-decoration="undefined" x="524" y="160" text-anchor="middle" dominant-baseline="central" transform="matrix(1 0 0 1 -30 2)">Perform</text><text fill="#000000" stroke="none" font-family="Arial" font-size="13px" font-style="normal" font-weight="bold" text-decoration="undefined" x="524" y="173" text-anchor="middle" dominant-baseline="central" transform="matrix(1 0 0 1 -30 2)">Workout</text><text fill="#000000" stroke="none" font-family="Arial" font-size="13px" font-style="normal" font-weight="bold" text-decoration="undefined" x="524" y="186" text-anchor="middle" dominant-baseline="central" transform="matrix(1 0 0 1 -30 2)">Session</text></g></g><g><path fill="none" stroke="#000000" paint-order="fill stroke markers" d=" M 433 174 L 315 174" stroke-miterlimit="10" stroke-dasharray="3"/></g><g><path fill="none" stroke="#000000" paint-order="fill stroke markers" d=" M 325.16267485762415 169.790482243984 L 315 174 L 325.16267485762415 178.209517756016" stroke-miterlimit="10" stroke-dasharray=""/></g><g><rect fill="#ffffff" stroke="none" x="379" y="176" width="53.49169921875" height="13" transform="matrix(1 0 0 1 -30 2)"/></g><g><g><path fill="none" stroke="none"/><text fill="#000000" stroke="none" font-family="Arial" font-size="13px" font-style="normal" font-weight="normal" text-decoration="undefined" x="405.745849609375" y="182.5" text-anchor="middle" dominant-baseline="central" transform="matrix(1 0 0 1 -30 2)">«extend»</text></g></g><g><g><path fill="none" stroke="none"/><text fill="#000000" stroke="none" font-family="Arial" font-size="13px" font-style="normal" font-weight="normal" text-decoration="undefined" x="293" y="749" text-anchor="start" dominant-baseline="text-before-edge" transform="matrix(1 0 0 1 -30 2)">*includes UC Login</text></g></g><g><path fill="#C0C0C0" stroke="none" paint-order="stroke fill markers" d=" M 209 493 C 209 473.1177472 237.6537728 457 273 457 C 308.3462272 457 337 473.1177472 337 493 C 337 512.8822528000001 308.3462272 529 273 529 C 237.6537728 529 209 512.8822528000001 209 493 Z" fill-opacity="0.2"/></g><g><path fill="#ffffff" stroke="none" paint-order="stroke fill markers" d=" M 202 486 C 202 466.1177472 230.6537728 450 266 450 C 301.3462272 450 330 466.1177472 330 486 C 330 505.8822528 301.3462272 522 266 522 C 230.6537728 522 202 505.8822528 202 486 Z"/></g><g><path fill="none" stroke="#000000" paint-order="fill stroke markers" d=" M 202 486 C 202 466.1177472 230.6537728 450 266 450 C 301.3462272 450 330 466.1177472 330 486 C 330 505.8822528 301.3462272 522 266 522 C 230.6537728 522 202 505.8822528 202 486 Z" stroke-miterlimit="10" stroke-dasharray=""/></g><g><g><path fill="none" stroke="none"/><text fill="#000000" stroke="none" font-family="Arial" font-size="13px" font-style="normal" font-weight="bold" text-decoration="undefined" x="296" y="478.5" text-anchor="middle" dominant-baseline="central" transform="matrix(1 0 0 1 -30 2)">View Athlete</text><text fill="#000000" stroke="none" font-family="Arial" font-size="13px" font-style="normal" font-weight="bold" text-decoration="undefined" x="296" y="491.5" text-anchor="middle" dominant-baseline="central" transform="matrix(1 0 0 1 -30 2)">Progress*</text></g></g><g><path fill="none" stroke="#000000" paint-order="fill stroke markers" d=" M 64 525 L 201 498" stroke-miterlimit="10" stroke-dasharray=""/></g><g><path fill="none" stroke="#000000" paint-order="fill stroke markers" d=" M 191.84307453996146 504.09513872847026 L 201 498 L 190.21516198521294 495.83498983956105" stroke-miterlimit="10" stroke-dasharray=""/></g><g><path fill="#C0C0C0" stroke="none" paint-order="stroke fill markers" d=" M 201 361 C 201 343.3268864 226.07205119999998 329 257 329 C 287.9279488 329 313 343.3268864 313 361 C 313 378.6731136 287.9279488 393 257 393 C 226.07205119999998 393 201 378.6731136 201 361 Z" fill-opacity="0.2"/></g><g><path fill="#ffffff" stroke="none" paint-order="stroke fill markers" d=" M 194 354 C 194 336.3268864 219.0720512 322 250 322 C 280.9279488 322 306 336.3268864 306 354 C 306 371.6731136 280.9279488 386 250 386 C 219.0720512 386 194 371.6731136 194 354 Z"/></g><g><path fill="none" stroke="#000000" paint-order="fill stroke markers" d=" M 194 354 C 194 336.3268864 219.0720512 322 250 322 C 280.9279488 322 306 336.3268864 306 354 C 306 371.6731136 280.9279488 386 250 386 C 219.0720512 386 194 371.6731136 194 354 Z" stroke-miterlimit="10" stroke-dasharray=""/></g><g><g><path fill="none" stroke="none"/><text fill="#000000" stroke="none" font-family="Arial" font-size="13px" font-style="normal" font-weight="bold" text-decoration="undefined" x="280" y="346.5" text-anchor="middle" dominant-baseline="central" transform="matrix(1 0 0 1 -30 2)">Send</text><text fill="#000000" stroke="none" font-family="Arial" font-size="13px" font-style="normal" font-weight="bold" text-decoration="undefined" x="280" y="359.5" text-anchor="middle" dominant-baseline="central" transform="matrix(1 0 0 1 -30 2)">Feedback*</text></g></g><g><path fill="none" stroke="#000000" paint-order="fill stroke markers" d=" M 65 271 L 193 328" stroke-miterlimit="10" stroke-dasharray=""/></g><g><path fill="none" stroke="#000000" paint-order="fill stroke markers" d=" M 182.00378959305823 327.71128441977305 L 193 328 L 185.42865779851007 320.0203523092847" stroke-miterlimit="10" stroke-dasharray=""/></g><g><path fill="#C0C0C0" stroke="none" paint-order="stroke fill markers" d=" M 177 661 C 177 641.1177472 205.6537728 625 241 625 C 276.3462272 625 305 641.1177472 305 661 C 305 680.8822528 276.3462272 697 241 697 C 205.6537728 697 177 680.8822528 177 661 Z" fill-opacity="0.2"/></g><g><path fill="#ffffff" stroke="none" paint-order="stroke fill markers" d=" M 170 654 C 170 634.1177472 198.6537728 618 234 618 C 269.3462272 618 298 634.1177472 298 654 C 298 673.8822528 269.3462272 690 234 690 C 198.6537728 690 170 673.8822528 170 654 Z"/></g><g><path fill="none" stroke="#000000" paint-order="fill stroke markers" d=" M 170 654 C 170 634.1177472 198.6537728 618 234 618 C 269.3462272 618 298 634.1177472 298 654 C 298 673.8822528 269.3462272 690 234 690 C 198.6537728 690 170 673.8822528 170 654 Z" stroke-miterlimit="10" stroke-dasharray=""/></g><g><g><path fill="none" stroke="none"/><text fill="#000000" stroke="none" font-family="Arial" font-size="13px" font-style="normal" font-weight="bold" text-decoration="undefined" x="264" y="640" text-anchor="middle" dominant-baseline="central" transform="matrix(1 0 0 1 -30 2)">Manage</text><text fill="#000000" stroke="none" font-family="Arial" font-size="13px" font-style="normal" font-weight="bold" text-decoration="undefined" x="264" y="653" text-anchor="middle" dominant-baseline="central" transform="matrix(1 0 0 1 -30 2)">Exercise</text><text fill="#000000" stroke="none" font-family="Arial" font-size="13px" font-style="normal" font-weight="bold" text-decoration="undefined" x="264" y="666" text-anchor="middle" dominant-baseline="central" transform="matrix(1 0 0 1 -30 2)">Library*</text></g></g><g><path fill="none" stroke="#000000" paint-order="fill stroke markers" d=" M 64 548 L 175 617" stroke-miterlimit="10" stroke-dasharray=""/></g><g><path fill="none" stroke="#000000" paint-order="fill stroke markers" d=" M 164.14664132085088 615.2098588374828 L 175 617 L 168.59133743462087 608.0596955240267" stroke-miterlimit="10" stroke-dasharray=""/></g><g><path fill="#C0C0C0" stroke="none" paint-order="stroke fill markers" d=" M 297 589 C 297 569.1177472 327.4446336 553 365 553 C 402.5553664 553 433 569.1177472 433 589 C 433 608.8822528 402.5553664 625 365 625 C 327.4446336 625 297 608.8822528 297 589 Z" fill-opacity="0.2"/></g><g><path fill="#ffffff" stroke="none" paint-order="stroke fill markers" d=" M 290 582 C 290 562.1177472 320.4446336 546 358 546 C 395.5553664 546 426 562.1177472 426 582 C 426 601.8822528 395.5553664 618 358 618 C 320.4446336 618 290 601.8822528 290 582 Z"/></g><g><path fill="none" stroke="#000000" paint-order="fill stroke markers" d=" M 290 582 C 290 562.1177472 320.4446336 546 358 546 C 395.5553664 546 426 562.1177472 426 582 C 426 601.8822528 395.5553664 618 358 618 C 320.4446336 618 290 601.8822528 290 582 Z" stroke-miterlimit="10" stroke-dasharray=""/></g><g><g><path fill="none" stroke="none"/><text fill="#000000" stroke="none" font-family="Arial" font-size="13px" font-style="normal" font-weight="bold" text-decoration="undefined" x="388" y="574.5" text-anchor="middle" dominant-baseline="central" transform="matrix(1 0 0 1 -30 2)">Modify</text><text fill="#000000" stroke="none" font-family="Arial" font-size="13px" font-style="normal" font-weight="bold" text-decoration="undefined" x="388" y="587.5" text-anchor="middle" dominant-baseline="central" transform="matrix(1 0 0 1 -30 2)">Athlete Plan*</text></g></g><g><path fill="none" stroke="#000000" paint-order="fill stroke markers" d=" M 64 535 L 289 571" stroke-miterlimit="10" stroke-dasharray=""/></g><g><path fill="none" stroke="#000000" paint-order="fill stroke markers" d=" M 278.2998980969332 573.5510427797248 L 289 571 L 279.630025736314 565.2377450335947" stroke-miterlimit="10" stroke-dasharray=""/></g><g><path fill="#C0C0C0" stroke="none" paint-order="stroke fill markers" d=" M 185 73 C 185 55.3268864 211.862912 41 245 41 C 278.137088 41 305 55.3268864 305 73 C 305 90.6731136 278.137088 105 245 105 C 211.862912 105 185 90.6731136 185 73 Z" fill-opacity="0.2"/></g><g><path fill="#ffffff" stroke="none" paint-order="stroke fill markers" d=" M 178 66 C 178 48.3268864 204.862912 34 238 34 C 271.137088 34 298 48.3268864 298 66 C 298 83.6731136 271.137088 98 238 98 C 204.862912 98 178 83.6731136 178 66 Z"/></g><g><path fill="none" stroke="#000000" paint-order="fill stroke markers" d=" M 178 66 C 178 48.3268864 204.862912 34 238 34 C 271.137088 34 298 48.3268864 298 66 C 298 83.6731136 271.137088 98 238 98 C 204.862912 98 178 83.6731136 178 66 Z" stroke-miterlimit="10" stroke-dasharray=""/></g><g><g><path fill="none" stroke="none"/><text fill="#000000" stroke="none" font-family="Arial" font-size="13px" font-style="normal" font-weight="bold" text-decoration="undefined" x="268" y="58.5" text-anchor="middle" dominant-baseline="central" transform="matrix(1 0 0 1 -30 2)">View</text><text fill="#000000" stroke="none" font-family="Arial" font-size="13px" font-style="normal" font-weight="bold" text-decoration="undefined" x="268" y="71.5" text-anchor="middle" dominant-baseline="central" transform="matrix(1 0 0 1 -30 2)">Progress*</text></g></g><g><path fill="none" stroke="#000000" paint-order="fill stroke markers" d=" M 65 231 L 203 99" stroke-miterlimit="10" stroke-dasharray=""/></g><g><path fill="none" stroke="#000000" paint-order="fill stroke markers" d=" M 198.56573976885824 109.06664473409658 L 203 99 L 192.74631176573828 102.98269727628937" stroke-miterlimit="10" stroke-dasharray=""/></g><g><path fill="#C0C0C0" stroke="none" paint-order="stroke fill markers" d=" M 305 277 C 305 257.1177472 335.4446336 241 373 241 C 410.5553664 241 441 257.1177472 441 277 C 441 296.8822528 410.5553664 313 373 313 C 335.4446336 313 305 296.8822528 305 277 Z" fill-opacity="0.2"/></g><g><path fill="#ffffff" stroke="none" paint-order="stroke fill markers" d=" M 298 270 C 298 250.1177472 328.4446336 234 366 234 C 403.5553664 234 434 250.1177472 434 270 C 434 289.8822528 403.5553664 306 366 306 C 328.4446336 306 298 289.8822528 298 270 Z"/></g><g><path fill="none" stroke="#000000" paint-order="fill stroke markers" d=" M 298 270 C 298 250.1177472 328.4446336 234 366 234 C 403.5553664 234 434 250.1177472 434 270 C 434 289.8822528 403.5553664 306 366 306 C 328.4446336 306 298 289.8822528 298 270 Z" stroke-miterlimit="10" stroke-dasharray=""/></g><g><g><path fill="none" stroke="none"/><text fill="#000000" stroke="none" font-family="Arial" font-size="13px" font-style="normal" font-weight="bold" text-decoration="undefined" x="396" y="262.5" text-anchor="middle" dominant-baseline="central" transform="matrix(1 0 0 1 -30 2)">Update Body</text><text fill="#000000" stroke="none" font-family="Arial" font-size="13px" font-style="normal" font-weight="bold" text-decoration="undefined" x="396" y="275.5" text-anchor="middle" dominant-baseline="central" transform="matrix(1 0 0 1 -30 2)">Metrics*</text></g></g><g><path fill="none" stroke="#000000" paint-order="fill stroke markers" d=" M 65 259 L 297 267" stroke-miterlimit="10" stroke-dasharray=""/></g><g><path fill="none" stroke="#000000" paint-order="fill stroke markers" d=" M 286.69829221575026 270.8567883955344 L 297 267 L 286.98843133987083 262.44275379603874" stroke-miterlimit="10" stroke-dasharray=""/></g><g><path fill="#C0C0C0" stroke="none" paint-order="stroke fill markers" d=" M 417 79 C 417 62.431456 445.6537728 49 481 49 C 516.3462272 49 545 62.431456 545 79 C 545 95.568544 516.3462272 109 481 109 C 445.6537728 109 417 95.568544 417 79 Z" fill-opacity="0.2"/></g><g><path fill="#ffffff" stroke="none" paint-order="stroke fill markers" d=" M 410 72 C 410 55.431456 438.6537728 42 474 42 C 509.34622720000004 42 538 55.431456 538 72 C 538 88.568544 509.34622720000004 102 474 102 C 438.6537728 102 410 88.568544 410 72 Z"/></g><g><path fill="none" stroke="#000000" paint-order="fill stroke markers" d=" M 410 72 C 410 55.431456 438.6537728 42 474 42 C 509.34622720000004 42 538 55.431456 538 72 C 538 88.568544 509.34622720000004 102 474 102 C 438.6537728 102 410 88.568544 410 72 Z" stroke-miterlimit="10" stroke-dasharray=""/></g><g><g><path fill="none" stroke="none"/><text fill="#000000" stroke="none" font-family="Arial" font-size="13px" font-style="normal" font-weight="bold" text-decoration="undefined" x="504" y="64.5" text-anchor="middle" dominant-baseline="central" transform="matrix(1 0 0 1 -30 2)">Update</text><text fill="#000000" stroke="none" font-family="Arial" font-size="13px" font-style="normal" font-weight="bold" text-decoration="undefined" x="504" y="77.5" text-anchor="middle" dominant-baseline="central" transform="matrix(1 0 0 1 -30 2)">Goals</text></g></g><g><path fill="none" stroke="#000000" paint-order="fill stroke markers" d=" M 409 70 L 299 68" stroke-miterlimit="10" stroke-dasharray="3"/></g><g><path fill="none" stroke="#000000" paint-order="fill stroke markers" d=" M 309.2375195319326 63.97592323218122 L 299 68 L 309.0844714540992 72.39356751301936" stroke-miterlimit="10" stroke-dasharray=""/></g><g><rect fill="#ffffff" stroke="none" x="363" y="68" width="53.49169921875" height="13" transform="matrix(1 0 0 1 -30 2)"/></g><g><g><path fill="none" stroke="none"/><text fill="#000000" stroke="none" font-family="Arial" font-size="13px" font-style="normal" font-weight="normal" text-decoration="undefined" x="389.745849609375" y="74.5" text-anchor="middle" dominant-baseline="central" transform="matrix(1 0 0 1 -30 2)">«extend»</text></g></g><g><path fill="#ffffff" stroke="none" paint-order="stroke fill markers" d=" M 653.16 363.85 C 653.16 358.96227952000004 657.117802368 355 662 355 C 666.882197632 355 670.84 358.96227952000004 670.84 363.85 C 670.84 368.73772048 666.882197632 372.7 662 372.7 C 657.117802368 372.7 653.16 368.73772048 653.16 363.85 Z"/></g><g><path fill="none" stroke="#000000" paint-order="fill stroke markers" d=" M 653.16 363.85 C 653.16 358.96227952000004 657.117802368 355 662 355 C 666.882197632 355 670.84 358.96227952000004 670.84 363.85 C 670.84 368.73772048 666.882197632 372.7 662 372.7 C 657.117802368 372.7 653.16 368.73772048 653.16 363.85 Z" stroke-miterlimit="10" stroke-dasharray=""/></g><g><path fill="none" stroke="#000000" paint-order="fill stroke markers" d=" M 662 372.7 L 662 390.3" stroke-miterlimit="10" stroke-dasharray=""/></g><g><path fill="none" stroke="#000000" paint-order="fill stroke markers" d=" M 652.64 379.3 L 671.36 379.3" stroke-miterlimit="10" stroke-dasharray=""/></g><g><path fill="none" stroke="#000000" paint-order="fill stroke markers" d=" M 662 390.3 L 649 408" stroke-miterlimit="10" stroke-dasharray=""/></g><g><path fill="none" stroke="#000000" paint-order="fill stroke markers" d=" M 662 390.3 L 675 408" stroke-miterlimit="10" stroke-dasharray=""/></g><g><g><path fill="none" stroke="none"/><text fill="#000000" stroke="none" font-family="Arial" font-size="13px" font-style="normal" font-weight="bold" text-decoration="undefined" x="692.5" y="420.5" text-anchor="middle" dominant-baseline="central" transform="matrix(1 0 0 1 -30 2)">Notification</text><text fill="#000000" stroke="none" font-family="Arial" font-size="13px" font-style="normal" font-weight="bold" text-decoration="undefined" x="692.5" y="433.5" text-anchor="middle" dominant-baseline="central" transform="matrix(1 0 0 1 -30 2)">Service</text></g></g><g><path fill="#C0C0C0" stroke="none" paint-order="stroke fill markers" d=" M 425 403.5 C 425 388.8644528 450.743624 377 482.5 377 C 514.256376 377 540 388.8644528 540 403.5 C 540 418.1355472 514.256376 430 482.5 430 C 450.743624 430 425 418.1355472 425 403.5 Z" fill-opacity="0.2"/></g><g><path fill="#ffffff" stroke="none" paint-order="stroke fill markers" d=" M 418 396.5 C 418 381.8644528 443.743624 370 475.5 370 C 507.25637600000005 370 533 381.8644528 533 396.5 C 533 411.1355472 507.25637600000005 423 475.5 423 C 443.743624 423 418 411.1355472 418 396.5 Z"/></g><g><path fill="none" stroke="#000000" paint-order="fill stroke markers" d=" M 418 396.5 C 418 381.8644528 443.743624 370 475.5 370 C 507.25637600000005 370 533 381.8644528 533 396.5 C 533 411.1355472 507.25637600000005 423 475.5 423 C 443.743624 423 418 411.1355472 418 396.5 Z" stroke-miterlimit="10" stroke-dasharray=""/></g><g><g><path fill="none" stroke="none"/><text fill="#000000" stroke="none" font-family="Arial" font-size="13px" font-style="normal" font-weight="bold" text-decoration="undefined" x="505.5" y="389" text-anchor="middle" dominant-baseline="central" transform="matrix(1 0 0 1 -30 2)">Send</text><text fill="#000000" stroke="none" font-family="Arial" font-size="13px" font-style="normal" font-weight="bold" text-decoration="undefined" x="505.5" y="402" text-anchor="middle" dominant-baseline="central" transform="matrix(1 0 0 1 -30 2)">Notification</text></g></g><g><path fill="none" stroke="#000000" paint-order="fill stroke markers" d=" M 307 365 L 417 385" stroke-miterlimit="10" stroke-dasharray="3"/></g><g><path fill="none" stroke="#000000" paint-order="fill stroke markers" d=" M 406.2482285730592 387.32366331098535 L 417 385 L 407.75427142985023 379.04042759863455" stroke-miterlimit="10" stroke-dasharray=""/></g><g><rect fill="#ffffff" stroke="none" x="368" y="360" width="55.65625" height="13" transform="matrix(1 0 0 1 -30 2)"/></g><g><g><path fill="none" stroke="none"/><text fill="#000000" stroke="none" font-family="Arial" font-size="13px" font-style="normal" font-weight="normal" text-decoration="undefined" x="395.828125" y="366.5" text-anchor="middle" dominant-baseline="central" transform="matrix(1 0 0 1 -30 2)">«include»</text></g></g><g><path fill="none" stroke="#000000" paint-order="fill stroke markers" d=" M 534 397 L 617 399" stroke-miterlimit="10" stroke-dasharray=""/></g><g><path fill="none" stroke="#000000" paint-order="fill stroke markers" d=" M 606.7388695371069 402.96348352128354 L 617 399 L 606.9416789920276 394.5468911420691" stroke-miterlimit="10" stroke-dasharray=""/></g><g><path fill="none" stroke="#000000" paint-order="fill stroke markers" d=" M 381 545 L 457 424" stroke-miterlimit="10" stroke-dasharray="3"/></g><g><path fill="none" stroke="#000000" paint-order="fill stroke markers" d=" M 455.1593169798342 434.8449013835661 L 457 424 L 448.0299372448069 430.3669438640448" stroke-miterlimit="10" stroke-dasharray=""/></g><g><rect fill="#ffffff" stroke="none" x="447" y="480" width="55.65625" height="13" transform="matrix(1 0 0 1 -30 2)"/></g><g><g><path fill="none" stroke="none"/><text fill="#000000" stroke="none" font-family="Arial" font-size="13px" font-style="normal" font-weight="normal" text-decoration="undefined" x="474.828125" y="486.5" text-anchor="middle" dominant-baseline="central" transform="matrix(1 0 0 1 -30 2)">«include»</text></g></g></g></svg>