<svg version="1.1" xmlns="http://www.w3.org/2000/svg" xmlns:xlink="http://www.w3.org/1999/xlink" width="893" height="788"><defs/><g><g><rect fill="#FFFFFF00" stroke="none" x="112" y="1" width="664" height="728" transform="matrix(1 0 0 1 -30 9)"/></g><g><path fill="none" stroke="#000000" paint-order="fill stroke markers" d=" M 82 10 L 746 10 L 746 738 L 82 738 L 82 10 Z Z" stroke-miterlimit="10" stroke-dasharray=""/></g><g><path fill="#ffffff" stroke="none" paint-order="stroke fill markers" d=" M 28.189541015624997 234.85 C 28.189541015624997 229.96227952 32.147343383625 226 37.029541015625 226 C 41.911738647625 226 45.869541015625 229.96227952 45.869541015625 234.85 C 45.869541015625 239.73772047999998 41.911738647625 243.7 37.029541015625 243.7 C 32.147343383625 243.7 28.189541015624997 239.73772047999998 28.189541015624997 234.85 Z"/></g><g><path fill="none" stroke="#000000" paint-order="fill stroke markers" d=" M 28.189541015624997 234.85 C 28.189541015624997 229.96227952 32.147343383625 226 37.029541015625 226 C 41.911738647625 226 45.869541015625 229.96227952 45.869541015625 234.85 C 45.869541015625 239.73772047999998 41.911738647625 243.7 37.029541015625 243.7 C 32.147343383625 243.7 28.189541015624997 239.73772047999998 28.189541015624997 234.85 Z" stroke-miterlimit="10" stroke-dasharray=""/></g><g><path fill="none" stroke="#000000" paint-order="fill stroke markers" d=" M 37.029541015625 243.7 L 37.029541015625 261.3" stroke-miterlimit="10" stroke-dasharray=""/></g><g><path fill="none" stroke="#000000" paint-order="fill stroke markers" d=" M 27.669541015625 250.3 L 46.389541015625 250.3" stroke-miterlimit="10" stroke-dasharray=""/></g><g><path fill="none" stroke="#000000" paint-order="fill stroke markers" d=" M 37.029541015625 261.3 L 24.029541015625 279" stroke-miterlimit="10" stroke-dasharray=""/></g><g><path fill="none" stroke="#000000" paint-order="fill stroke markers" d=" M 37.029541015625 261.3 L 50.029541015625 279" stroke-miterlimit="10" stroke-dasharray=""/></g><g><g><path fill="none" stroke="none"/><text fill="#000000" stroke="none" font-family="Arial" font-size="13px" font-style="normal" font-weight="bold" text-decoration="undefined" x="67.529541015625" y="284.5" text-anchor="middle" dominant-baseline="central" transform="matrix(1 0 0 1 -30 9)">Athlete</text></g></g><g><path fill="#ffffff" stroke="none" paint-order="stroke fill markers" d=" M 27.837246093749997 506.85 C 27.837246093749997 501.96227952000004 31.79504846175 498 36.67724609375 498 C 41.55944372575 498 45.51724609375 501.96227952000004 45.51724609375 506.85 C 45.51724609375 511.73772048 41.55944372575 515.7 36.67724609375 515.7 C 31.79504846175 515.7 27.837246093749997 511.73772048 27.837246093749997 506.85 Z"/></g><g><path fill="none" stroke="#000000" paint-order="fill stroke markers" d=" M 27.837246093749997 506.85 C 27.837246093749997 501.96227952000004 31.79504846175 498 36.67724609375 498 C 41.55944372575 498 45.51724609375 501.96227952000004 45.51724609375 506.85 C 45.51724609375 511.73772048 41.55944372575 515.7 36.67724609375 515.7 C 31.79504846175 515.7 27.837246093749997 511.73772048 27.837246093749997 506.85 Z" stroke-miterlimit="10" stroke-dasharray=""/></g><g><path fill="none" stroke="#000000" paint-order="fill stroke markers" d=" M 36.67724609375 515.7 L 36.67724609375 533.3" stroke-miterlimit="10" stroke-dasharray=""/></g><g><path fill="none" stroke="#000000" paint-order="fill stroke markers" d=" M 27.31724609375 522.3 L 46.03724609375 522.3" stroke-miterlimit="10" stroke-dasharray=""/></g><g><path fill="none" stroke="#000000" paint-order="fill stroke markers" d=" M 36.67724609375 533.3 L 23.67724609375 551" stroke-miterlimit="10" stroke-dasharray=""/></g><g><path fill="none" stroke="#000000" paint-order="fill stroke markers" d=" M 36.67724609375 533.3 L 49.67724609375 551" stroke-miterlimit="10" stroke-dasharray=""/></g><g><g><path fill="none" stroke="none"/><text fill="#000000" stroke="none" font-family="Arial" font-size="13px" font-style="normal" font-weight="bold" text-decoration="undefined" x="67.17724609375" y="556.5" text-anchor="middle" dominant-baseline="central" transform="matrix(1 0 0 1 -30 9)">Trainer</text></g></g><g><path fill="#C0C0C0" stroke="none" paint-order="stroke fill markers" d=" M 201 188 C 201 168.1177472 227.862912 152 261 152 C 294.137088 152 321 168.1177472 321 188 C 321 207.8822528 294.137088 224 261 224 C 227.862912 224 201 207.8822528 201 188 Z" fill-opacity="0.2"/></g><g><path fill="#ffffff" stroke="none" paint-order="stroke fill markers" d=" M 194 181 C 194 161.1177472 220.862912 145 254 145 C 287.137088 145 314 161.1177472 314 181 C 314 200.8822528 287.137088 217 254 217 C 220.862912 217 194 200.8822528 194 181 Z"/></g><g><path fill="none" stroke="#000000" paint-order="fill stroke markers" d=" M 194 181 C 194 161.1177472 220.862912 145 254 145 C 287.137088 145 314 161.1177472 314 181 C 314 200.8822528 287.137088 217 254 217 C 220.862912 217 194 200.8822528 194 181 Z" stroke-miterlimit="10" stroke-dasharray=""/></g><g><g><path fill="none" stroke="none"/><text fill="#000000" stroke="none" font-family="Arial" font-size="13px" font-style="normal" font-weight="bold" text-decoration="undefined" x="284" y="160" text-anchor="middle" dominant-baseline="central" transform="matrix(1 0 0 1 -30 9)">View</text><text fill="#000000" stroke="none" font-family="Arial" font-size="13px" font-style="normal" font-weight="bold" text-decoration="undefined" x="284" y="173" text-anchor="middle" dominant-baseline="central" transform="matrix(1 0 0 1 -30 9)">Workout</text><text fill="#000000" stroke="none" font-family="Arial" font-size="13px" font-style="normal" font-weight="bold" text-decoration="undefined" x="284" y="186" text-anchor="middle" dominant-baseline="central" transform="matrix(1 0 0 1 -30 9)">Plan*</text></g></g><g><path fill="none" stroke="#000000" paint-order="fill stroke markers" d=" M 65 254 L 193 205" stroke-miterlimit="10" stroke-dasharray=""/></g><g><path fill="none" stroke="#000000" paint-order="fill stroke markers" d=" M 185.01394327011232 212.5645818064858 L 193 205 L 182.00403803914946 204.70197222356245" stroke-miterlimit="10" stroke-dasharray=""/></g><g><path fill="#C0C0C0" stroke="none" paint-order="stroke fill markers" d=" M 441 188 C 441 168.1177472 467.862912 152 501 152 C 534.137088 152 561 168.1177472 561 188 C 561 207.8822528 534.137088 224 501 224 C 467.862912 224 441 207.8822528 441 188 Z" fill-opacity="0.2"/></g><g><path fill="#ffffff" stroke="none" paint-order="stroke fill markers" d=" M 434 181 C 434 161.1177472 460.862912 145 494 145 C 527.137088 145 554 161.1177472 554 181 C 554 200.8822528 527.137088 217 494 217 C 460.862912 217 434 200.8822528 434 181 Z"/></g><g><path fill="none" stroke="#000000" paint-order="fill stroke markers" d=" M 434 181 C 434 161.1177472 460.862912 145 494 145 C 527.137088 145 554 161.1177472 554 181 C 554 200.8822528 527.137088 217 494 217 C 460.862912 217 434 200.8822528 434 181 Z" stroke-miterlimit="10" stroke-dasharray=""/></g><g><g><path fill="none" stroke="none"/><text fill="#000000" stroke="none" font-family="Arial" font-size="13px" font-style="normal" font-weight="bold" text-decoration="undefined" x="524" y="160" text-anchor="middle" dominant-baseline="central" transform="matrix(1 0 0 1 -30 9)">Perform</text><text fill="#000000" stroke="none" font-family="Arial" font-size="13px" font-style="normal" font-weight="bold" text-decoration="undefined" x="524" y="173" text-anchor="middle" dominant-baseline="central" transform="matrix(1 0 0 1 -30 9)">Workout</text><text fill="#000000" stroke="none" font-family="Arial" font-size="13px" font-style="normal" font-weight="bold" text-decoration="undefined" x="524" y="186" text-anchor="middle" dominant-baseline="central" transform="matrix(1 0 0 1 -30 9)">Session</text></g></g><g><path fill="none" stroke="#000000" paint-order="fill stroke markers" d=" M 433 181 L 315 181" stroke-miterlimit="10" stroke-dasharray="3"/></g><g><path fill="none" stroke="#000000" paint-order="fill stroke markers" d=" M 325.16267485762415 176.790482243984 L 315 181 L 325.16267485762415 185.209517756016" stroke-miterlimit="10" stroke-dasharray=""/></g><g><rect fill="#ffffff" stroke="none" x="379" y="176" width="53.49169921875" height="13" transform="matrix(1 0 0 1 -30 9)"/></g><g><g><path fill="none" stroke="none"/><text fill="#000000" stroke="none" font-family="Arial" font-size="13px" font-style="normal" font-weight="normal" text-decoration="undefined" x="405.745849609375" y="182.5" text-anchor="middle" dominant-baseline="central" transform="matrix(1 0 0 1 -30 9)">«extend»</text></g></g><g><g><path fill="none" stroke="none"/><text fill="#000000" stroke="none" font-family="Arial" font-size="13px" font-style="normal" font-weight="normal" text-decoration="undefined" x="293" y="749" text-anchor="start" dominant-baseline="text-before-edge" transform="matrix(1 0 0 1 -30 9)">*includes UC Login</text></g></g><g><path fill="#C0C0C0" stroke="none" paint-order="stroke fill markers" d=" M 209 500 C 209 480.1177472 237.6537728 464 273 464 C 308.3462272 464 337 480.1177472 337 500 C 337 519.8822528000001 308.3462272 536 273 536 C 237.6537728 536 209 519.8822528000001 209 500 Z" fill-opacity="0.2"/></g><g><path fill="#ffffff" stroke="none" paint-order="stroke fill markers" d=" M 202 493 C 202 473.1177472 230.6537728 457 266 457 C 301.3462272 457 330 473.1177472 330 493 C 330 512.8822528000001 301.3462272 529 266 529 C 230.6537728 529 202 512.8822528000001 202 493 Z"/></g><g><path fill="none" stroke="#000000" paint-order="fill stroke markers" d=" M 202 493 C 202 473.1177472 230.6537728 457 266 457 C 301.3462272 457 330 473.1177472 330 493 C 330 512.8822528000001 301.3462272 529 266 529 C 230.6537728 529 202 512.8822528000001 202 493 Z" stroke-miterlimit="10" stroke-dasharray=""/></g><g><g><path fill="none" stroke="none"/><text fill="#000000" stroke="none" font-family="Arial" font-size="13px" font-style="normal" font-weight="bold" text-decoration="undefined" x="296" y="478.5" text-anchor="middle" dominant-baseline="central" transform="matrix(1 0 0 1 -30 9)">View Athlete</text><text fill="#000000" stroke="none" font-family="Arial" font-size="13px" font-style="normal" font-weight="bold" text-decoration="undefined" x="296" y="491.5" text-anchor="middle" dominant-baseline="central" transform="matrix(1 0 0 1 -30 9)">Progress*</text></g></g><g><path fill="none" stroke="#000000" paint-order="fill stroke markers" d=" M 64 532 L 201 505" stroke-miterlimit="10" stroke-dasharray=""/></g><g><path fill="none" stroke="#000000" paint-order="fill stroke markers" d=" M 191.84307453996146 511.09513872847026 L 201 505 L 190.21516198521294 502.83498983956105" stroke-miterlimit="10" stroke-dasharray=""/></g><g><path fill="#C0C0C0" stroke="none" paint-order="stroke fill markers" d=" M 201 368 C 201 350.3268864 226.07205119999998 336 257 336 C 287.9279488 336 313 350.3268864 313 368 C 313 385.6731136 287.9279488 400 257 400 C 226.07205119999998 400 201 385.6731136 201 368 Z" fill-opacity="0.2"/></g><g><path fill="#ffffff" stroke="none" paint-order="stroke fill markers" d=" M 194 361 C 194 343.3268864 219.0720512 329 250 329 C 280.9279488 329 306 343.3268864 306 361 C 306 378.6731136 280.9279488 393 250 393 C 219.0720512 393 194 378.6731136 194 361 Z"/></g><g><path fill="none" stroke="#000000" paint-order="fill stroke markers" d=" M 194 361 C 194 343.3268864 219.0720512 329 250 329 C 280.9279488 329 306 343.3268864 306 361 C 306 378.6731136 280.9279488 393 250 393 C 219.0720512 393 194 378.6731136 194 361 Z" stroke-miterlimit="10" stroke-dasharray=""/></g><g><g><path fill="none" stroke="none"/><text fill="#000000" stroke="none" font-family="Arial" font-size="13px" font-style="normal" font-weight="bold" text-decoration="undefined" x="280" y="346.5" text-anchor="middle" dominant-baseline="central" transform="matrix(1 0 0 1 -30 9)">Send</text><text fill="#000000" stroke="none" font-family="Arial" font-size="13px" font-style="normal" font-weight="bold" text-decoration="undefined" x="280" y="359.5" text-anchor="middle" dominant-baseline="central" transform="matrix(1 0 0 1 -30 9)">Feedback*</text></g></g><g><path fill="none" stroke="#000000" paint-order="fill stroke markers" d=" M 65 278 L 193 335" stroke-miterlimit="10" stroke-dasharray=""/></g><g><path fill="none" stroke="#000000" paint-order="fill stroke markers" d=" M 182.00378959305823 334.71128441977305 L 193 335 L 185.42865779851007 327.0203523092847" stroke-miterlimit="10" stroke-dasharray=""/></g><g><path fill="#C0C0C0" stroke="none" paint-order="stroke fill markers" d=" M 177 668 C 177 648.1177472 205.6537728 632 241 632 C 276.3462272 632 305 648.1177472 305 668 C 305 687.8822528 276.3462272 704 241 704 C 205.6537728 704 177 687.8822528 177 668 Z" fill-opacity="0.2"/></g><g><path fill="#ffffff" stroke="none" paint-order="stroke fill markers" d=" M 170 661 C 170 641.1177472 198.6537728 625 234 625 C 269.3462272 625 298 641.1177472 298 661 C 298 680.8822528 269.3462272 697 234 697 C 198.6537728 697 170 680.8822528 170 661 Z"/></g><g><path fill="none" stroke="#000000" paint-order="fill stroke markers" d=" M 170 661 C 170 641.1177472 198.6537728 625 234 625 C 269.3462272 625 298 641.1177472 298 661 C 298 680.8822528 269.3462272 697 234 697 C 198.6537728 697 170 680.8822528 170 661 Z" stroke-miterlimit="10" stroke-dasharray=""/></g><g><g><path fill="none" stroke="none"/><text fill="#000000" stroke="none" font-family="Arial" font-size="13px" font-style="normal" font-weight="bold" text-decoration="undefined" x="264" y="640" text-anchor="middle" dominant-baseline="central" transform="matrix(1 0 0 1 -30 9)">Manage</text><text fill="#000000" stroke="none" font-family="Arial" font-size="13px" font-style="normal" font-weight="bold" text-decoration="undefined" x="264" y="653" text-anchor="middle" dominant-baseline="central" transform="matrix(1 0 0 1 -30 9)">Exercise</text><text fill="#000000" stroke="none" font-family="Arial" font-size="13px" font-style="normal" font-weight="bold" text-decoration="undefined" x="264" y="666" text-anchor="middle" dominant-baseline="central" transform="matrix(1 0 0 1 -30 9)">Library*</text></g></g><g><path fill="none" stroke="#000000" paint-order="fill stroke markers" d=" M 64 555 L 175 624" stroke-miterlimit="10" stroke-dasharray=""/></g><g><path fill="none" stroke="#000000" paint-order="fill stroke markers" d=" M 164.14664132085088 622.2098588374828 L 175 624 L 168.59133743462087 615.0596955240267" stroke-miterlimit="10" stroke-dasharray=""/></g><g><path fill="#C0C0C0" stroke="none" paint-order="stroke fill markers" d=" M 297 596 C 297 576.1177472 327.4446336 560 365 560 C 402.5553664 560 433 576.1177472 433 596 C 433 615.8822528 402.5553664 632 365 632 C 327.4446336 632 297 615.8822528 297 596 Z" fill-opacity="0.2"/></g><g><path fill="#ffffff" stroke="none" paint-order="stroke fill markers" d=" M 290 589 C 290 569.1177472 320.4446336 553 358 553 C 395.5553664 553 426 569.1177472 426 589 C 426 608.8822528 395.5553664 625 358 625 C 320.4446336 625 290 608.8822528 290 589 Z"/></g><g><path fill="none" stroke="#000000" paint-order="fill stroke markers" d=" M 290 589 C 290 569.1177472 320.4446336 553 358 553 C 395.5553664 553 426 569.1177472 426 589 C 426 608.8822528 395.5553664 625 358 625 C 320.4446336 625 290 608.8822528 290 589 Z" stroke-miterlimit="10" stroke-dasharray=""/></g><g><g><path fill="none" stroke="none"/><text fill="#000000" stroke="none" font-family="Arial" font-size="13px" font-style="normal" font-weight="bold" text-decoration="undefined" x="388" y="574.5" text-anchor="middle" dominant-baseline="central" transform="matrix(1 0 0 1 -30 9)">Modify</text><text fill="#000000" stroke="none" font-family="Arial" font-size="13px" font-style="normal" font-weight="bold" text-decoration="undefined" x="388" y="587.5" text-anchor="middle" dominant-baseline="central" transform="matrix(1 0 0 1 -30 9)">Athlete Plan*</text></g></g><g><path fill="none" stroke="#000000" paint-order="fill stroke markers" d=" M 64 542 L 289 578" stroke-miterlimit="10" stroke-dasharray=""/></g><g><path fill="none" stroke="#000000" paint-order="fill stroke markers" d=" M 278.2998980969332 580.5510427797248 L 289 578 L 279.630025736314 572.2377450335947" stroke-miterlimit="10" stroke-dasharray=""/></g><g><path fill="#C0C0C0" stroke="none" paint-order="stroke fill markers" d=" M 185 80 C 185 62.3268864 211.862912 48 245 48 C 278.137088 48 305 62.3268864 305 80 C 305 97.6731136 278.137088 112 245 112 C 211.862912 112 185 97.6731136 185 80 Z" fill-opacity="0.2"/></g><g><path fill="#ffffff" stroke="none" paint-order="stroke fill markers" d=" M 178 73 C 178 55.3268864 204.862912 41 238 41 C 271.137088 41 298 55.3268864 298 73 C 298 90.6731136 271.137088 105 238 105 C 204.862912 105 178 90.6731136 178 73 Z"/></g><g><path fill="none" stroke="#000000" paint-order="fill stroke markers" d=" M 178 73 C 178 55.3268864 204.862912 41 238 41 C 271.137088 41 298 55.3268864 298 73 C 298 90.6731136 271.137088 105 238 105 C 204.862912 105 178 90.6731136 178 73 Z" stroke-miterlimit="10" stroke-dasharray=""/></g><g><g><path fill="none" stroke="none"/><text fill="#000000" stroke="none" font-family="Arial" font-size="13px" font-style="normal" font-weight="bold" text-decoration="undefined" x="268" y="58.5" text-anchor="middle" dominant-baseline="central" transform="matrix(1 0 0 1 -30 9)">View</text><text fill="#000000" stroke="none" font-family="Arial" font-size="13px" font-style="normal" font-weight="bold" text-decoration="undefined" x="268" y="71.5" text-anchor="middle" dominant-baseline="central" transform="matrix(1 0 0 1 -30 9)">Progress*</text></g></g><g><path fill="none" stroke="#000000" paint-order="fill stroke markers" d=" M 65 238 L 203 106" stroke-miterlimit="10" stroke-dasharray=""/></g><g><path fill="none" stroke="#000000" paint-order="fill stroke markers" d=" M 198.56573976885824 116.06664473409658 L 203 106 L 192.74631176573828 109.98269727628937" stroke-miterlimit="10" stroke-dasharray=""/></g><g><path fill="#C0C0C0" stroke="none" paint-order="stroke fill markers" d=" M 305 284 C 305 264.1177472 335.4446336 248 373 248 C 410.5553664 248 441 264.1177472 441 284 C 441 303.8822528 410.5553664 320 373 320 C 335.4446336 320 305 303.8822528 305 284 Z" fill-opacity="0.2"/></g><g><path fill="#ffffff" stroke="none" paint-order="stroke fill markers" d=" M 298 277 C 298 257.1177472 328.4446336 241 366 241 C 403.5553664 241 434 257.1177472 434 277 C 434 296.8822528 403.5553664 313 366 313 C 328.4446336 313 298 296.8822528 298 277 Z"/></g><g><path fill="none" stroke="#000000" paint-order="fill stroke markers" d=" M 298 277 C 298 257.1177472 328.4446336 241 366 241 C 403.5553664 241 434 257.1177472 434 277 C 434 296.8822528 403.5553664 313 366 313 C 328.4446336 313 298 296.8822528 298 277 Z" stroke-miterlimit="10" stroke-dasharray=""/></g><g><g><path fill="none" stroke="none"/><text fill="#000000" stroke="none" font-family="Arial" font-size="13px" font-style="normal" font-weight="bold" text-decoration="undefined" x="396" y="262.5" text-anchor="middle" dominant-baseline="central" transform="matrix(1 0 0 1 -30 9)">Update Body</text><text fill="#000000" stroke="none" font-family="Arial" font-size="13px" font-style="normal" font-weight="bold" text-decoration="undefined" x="396" y="275.5" text-anchor="middle" dominant-baseline="central" transform="matrix(1 0 0 1 -30 9)">Metrics*</text></g></g><g><path fill="none" stroke="#000000" paint-order="fill stroke markers" d=" M 65 266 L 297 274" stroke-miterlimit="10" stroke-dasharray=""/></g><g><path fill="none" stroke="#000000" paint-order="fill stroke markers" d=" M 286.69829221575026 277.8567883955344 L 297 274 L 286.98843133987083 269.44275379603874" stroke-miterlimit="10" stroke-dasharray=""/></g><g><path fill="#C0C0C0" stroke="none" paint-order="stroke fill markers" d=" M 417 86 C 417 69.431456 445.6537728 56 481 56 C 516.3462272 56 545 69.431456 545 86 C 545 102.568544 516.3462272 116 481 116 C 445.6537728 116 417 102.568544 417 86 Z" fill-opacity="0.2"/></g><g><path fill="#ffffff" stroke="none" paint-order="stroke fill markers" d=" M 410 79 C 410 62.431456 438.6537728 49 474 49 C 509.34622720000004 49 538 62.431456 538 79 C 538 95.568544 509.34622720000004 109 474 109 C 438.6537728 109 410 95.568544 410 79 Z"/></g><g><path fill="none" stroke="#000000" paint-order="fill stroke markers" d=" M 410 79 C 410 62.431456 438.6537728 49 474 49 C 509.34622720000004 49 538 62.431456 538 79 C 538 95.568544 509.34622720000004 109 474 109 C 438.6537728 109 410 95.568544 410 79 Z" stroke-miterlimit="10" stroke-dasharray=""/></g><g><g><path fill="none" stroke="none"/><text fill="#000000" stroke="none" font-family="Arial" font-size="13px" font-style="normal" font-weight="bold" text-decoration="undefined" x="504" y="64.5" text-anchor="middle" dominant-baseline="central" transform="matrix(1 0 0 1 -30 9)">Update</text><text fill="#000000" stroke="none" font-family="Arial" font-size="13px" font-style="normal" font-weight="bold" text-decoration="undefined" x="504" y="77.5" text-anchor="middle" dominant-baseline="central" transform="matrix(1 0 0 1 -30 9)">Goals</text></g></g><g><path fill="none" stroke="#000000" paint-order="fill stroke markers" d=" M 409 77 L 299 75" stroke-miterlimit="10" stroke-dasharray="3"/></g><g><path fill="none" stroke="#000000" paint-order="fill stroke markers" d=" M 309.2375195319326 70.97592323218123 L 299 75 L 309.0844714540992 79.39356751301936" stroke-miterlimit="10" stroke-dasharray=""/></g><g><rect fill="#ffffff" stroke="none" x="363" y="68" width="53.49169921875" height="13" transform="matrix(1 0 0 1 -30 9)"/></g><g><g><path fill="none" stroke="none"/><text fill="#000000" stroke="none" font-family="Arial" font-size="13px" font-style="normal" font-weight="normal" text-decoration="undefined" x="389.745849609375" y="74.5" text-anchor="middle" dominant-baseline="central" transform="matrix(1 0 0 1 -30 9)">«extend»</text></g></g><g><path fill="#ffffff" stroke="none" paint-order="stroke fill markers" d=" M 821.656826171875 370.85 C 821.656826171875 365.96227952000004 825.614628539875 362 830.496826171875 362 C 835.379023803875 362 839.336826171875 365.96227952000004 839.336826171875 370.85 C 839.336826171875 375.73772048 835.379023803875 379.7 830.496826171875 379.7 C 825.614628539875 379.7 821.656826171875 375.73772048 821.656826171875 370.85 Z"/></g><g><path fill="none" stroke="#000000" paint-order="fill stroke markers" d=" M 821.656826171875 370.85 C 821.656826171875 365.96227952000004 825.614628539875 362 830.496826171875 362 C 835.379023803875 362 839.336826171875 365.96227952000004 839.336826171875 370.85 C 839.336826171875 375.73772048 835.379023803875 379.7 830.496826171875 379.7 C 825.614628539875 379.7 821.656826171875 375.73772048 821.656826171875 370.85 Z" stroke-miterlimit="10" stroke-dasharray=""/></g><g><path fill="none" stroke="#000000" paint-order="fill stroke markers" d=" M 830.496826171875 379.7 L 830.496826171875 397.3" stroke-miterlimit="10" stroke-dasharray=""/></g><g><path fill="none" stroke="#000000" paint-order="fill stroke markers" d=" M 821.136826171875 386.3 L 839.856826171875 386.3" stroke-miterlimit="10" stroke-dasharray=""/></g><g><path fill="none" stroke="#000000" paint-order="fill stroke markers" d=" M 830.496826171875 397.3 L 817.496826171875 415" stroke-miterlimit="10" stroke-dasharray=""/></g><g><path fill="none" stroke="#000000" paint-order="fill stroke markers" d=" M 830.496826171875 397.3 L 843.496826171875 415" stroke-miterlimit="10" stroke-dasharray=""/></g><g><g><path fill="none" stroke="none"/><text fill="#000000" stroke="none" font-family="Arial" font-size="13px" font-style="normal" font-weight="bold" text-decoration="undefined" x="860.996826171875" y="420.5" text-anchor="middle" dominant-baseline="central" transform="matrix(1 0 0 1 -30 9)">notification</text><text fill="#000000" stroke="none" font-family="Arial" font-size="13px" font-style="normal" font-weight="bold" text-decoration="undefined" x="860.996826171875" y="433.5" text-anchor="middle" dominant-baseline="central" transform="matrix(1 0 0 1 -30 9)">service</text></g></g><g><path fill="#C0C0C0" stroke="none" paint-order="stroke fill markers" d=" M 425 410.5 C 425 395.8644528 450.743624 384 482.5 384 C 514.256376 384 540 395.8644528 540 410.5 C 540 425.1355472 514.256376 437 482.5 437 C 450.743624 437 425 425.1355472 425 410.5 Z" fill-opacity="0.2"/></g><g><path fill="#ffffff" stroke="none" paint-order="stroke fill markers" d=" M 418 403.5 C 418 388.8644528 443.743624 377 475.5 377 C 507.25637600000005 377 533 388.8644528 533 403.5 C 533 418.1355472 507.25637600000005 430 475.5 430 C 443.743624 430 418 418.1355472 418 403.5 Z"/></g><g><path fill="none" stroke="#000000" paint-order="fill stroke markers" d=" M 418 403.5 C 418 388.8644528 443.743624 377 475.5 377 C 507.25637600000005 377 533 388.8644528 533 403.5 C 533 418.1355472 507.25637600000005 430 475.5 430 C 443.743624 430 418 418.1355472 418 403.5 Z" stroke-miterlimit="10" stroke-dasharray=""/></g><g><g><path fill="none" stroke="none"/><text fill="#000000" stroke="none" font-family="Arial" font-size="13px" font-style="normal" font-weight="bold" text-decoration="undefined" x="505.5" y="389" text-anchor="middle" dominant-baseline="central" transform="matrix(1 0 0 1 -30 9)">Send</text><text fill="#000000" stroke="none" font-family="Arial" font-size="13px" font-style="normal" font-weight="bold" text-decoration="undefined" x="505.5" y="402" text-anchor="middle" dominant-baseline="central" transform="matrix(1 0 0 1 -30 9)">Notification</text></g></g><g><path fill="none" stroke="#000000" paint-order="fill stroke markers" d=" M 307 372 L 417 392" stroke-miterlimit="10" stroke-dasharray="3"/></g><g><path fill="none" stroke="#000000" paint-order="fill stroke markers" d=" M 406.2482285730592 394.32366331098535 L 417 392 L 407.75427142985023 386.04042759863455" stroke-miterlimit="10" stroke-dasharray=""/></g><g><rect fill="#ffffff" stroke="none" x="368" y="360" width="55.65625" height="13" transform="matrix(1 0 0 1 -30 9)"/></g><g><g><path fill="none" stroke="none"/><text fill="#000000" stroke="none" font-family="Arial" font-size="13px" font-style="normal" font-weight="normal" text-decoration="undefined" x="395.828125" y="366.5" text-anchor="middle" dominant-baseline="central" transform="matrix(1 0 0 1 -30 9)">«include»</text></g></g><g><path fill="none" stroke="#000000" paint-order="fill stroke markers" d=" M 534 404 L 779 406" stroke-miterlimit="10" stroke-dasharray=""/></g><g><path fill="none" stroke="#000000" paint-order="fill stroke markers" d=" M 768.8033014748518 410.12641965718944 L 779 406 L 768.8720260055327 401.7076646487729" stroke-miterlimit="10" stroke-dasharray=""/></g><g><path fill="none" stroke="#000000" paint-order="fill stroke markers" d=" M 381 552 L 457 431" stroke-miterlimit="10" stroke-dasharray="3"/></g><g><path fill="none" stroke="#000000" paint-order="fill stroke markers" d=" M 455.1593169798342 441.8449013835661 L 457 431 L 448.0299372448069 437.3669438640448" stroke-miterlimit="10" stroke-dasharray=""/></g><g><rect fill="#ffffff" stroke="none" x="447" y="480" width="55.65625" height="13" transform="matrix(1 0 0 1 -30 9)"/></g><g><g><path fill="none" stroke="none"/><text fill="#000000" stroke="none" font-family="Arial" font-size="13px" font-style="normal" font-weight="normal" text-decoration="undefined" x="474.828125" y="486.5" text-anchor="middle" dominant-baseline="central" transform="matrix(1 0 0 1 -30 9)">«include»</text></g></g><g><path fill="#C0C0C0" stroke="none" paint-order="stroke fill markers" d=" M 521 320 C 521 297.908608 543.8334752 280 572 280 C 600.1665248 280 623 297.908608 623 320 C 623 342.091392 600.1665248 360 572 360 C 543.8334752 360 521 342.091392 521 320 Z" fill-opacity="0.2"/></g><g><path fill="#ffffff" stroke="none" paint-order="stroke fill markers" d=" M 514 313 C 514 290.908608 536.8334752 273 565 273 C 593.1665248 273 616 290.908608 616 313 C 616 335.091392 593.1665248 353 565 353 C 536.8334752 353 514 335.091392 514 313 Z"/></g><g><path fill="none" stroke="#000000" paint-order="fill stroke markers" d=" M 514 313 C 514 290.908608 536.8334752 273 565 273 C 593.1665248 273 616 290.908608 616 313 C 616 335.091392 593.1665248 353 565 353 C 536.8334752 353 514 335.091392 514 313 Z" stroke-miterlimit="10" stroke-dasharray=""/></g><g><g><path fill="none" stroke="none"/><text fill="#000000" stroke="none" font-family="Arial" font-size="13px" font-style="normal" font-weight="bold" text-decoration="undefined" x="595" y="305" text-anchor="middle" dominant-baseline="central" transform="matrix(1 0 0 1 -30 9)">LOGIN</text></g></g><g><path fill="#ffffff" stroke="none" paint-order="stroke fill markers" d=" M 821.16 182.85 C 821.16 177.96227952 825.117802368 174 830 174 C 834.882197632 174 838.84 177.96227952 838.84 182.85 C 838.84 187.73772047999998 834.882197632 191.7 830 191.7 C 825.117802368 191.7 821.16 187.73772047999998 821.16 182.85 Z"/></g><g><path fill="none" stroke="#000000" paint-order="fill stroke markers" d=" M 821.16 182.85 C 821.16 177.96227952 825.117802368 174 830 174 C 834.882197632 174 838.84 177.96227952 838.84 182.85 C 838.84 187.73772047999998 834.882197632 191.7 830 191.7 C 825.117802368 191.7 821.16 187.73772047999998 821.16 182.85 Z" stroke-miterlimit="10" stroke-dasharray=""/></g><g><path fill="none" stroke="#000000" paint-order="fill stroke markers" d=" M 830 191.7 L 830 209.3" stroke-miterlimit="10" stroke-dasharray=""/></g><g><path fill="none" stroke="#000000" paint-order="fill stroke markers" d=" M 820.64 198.3 L 839.36 198.3" stroke-miterlimit="10" stroke-dasharray=""/></g><g><path fill="none" stroke="#000000" paint-order="fill stroke markers" d=" M 830 209.3 L 817 227" stroke-miterlimit="10" stroke-dasharray=""/></g><g><path fill="none" stroke="#000000" paint-order="fill stroke markers" d=" M 830 209.3 L 843 227" stroke-miterlimit="10" stroke-dasharray=""/></g><g><g><path fill="none" stroke="none"/><text fill="#000000" stroke="none" font-family="Arial" font-size="13px" font-style="normal" font-weight="bold" text-decoration="undefined" x="860.5" y="232.5" text-anchor="middle" dominant-baseline="central" transform="matrix(1 0 0 1 -30 9)">Authentication</text><text fill="#000000" stroke="none" font-family="Arial" font-size="13px" font-style="normal" font-weight="bold" text-decoration="undefined" x="860.5" y="245.5" text-anchor="middle" dominant-baseline="central" transform="matrix(1 0 0 1 -30 9)">service</text></g></g><g><path fill="#C0C0C0" stroke="none" paint-order="stroke fill markers" d=" M 601 224 C 601 206.3268864 630.7730607999999 192 667.5 192 C 704.2269392000001 192 734 206.3268864 734 224 C 734 241.6731136 704.2269392000001 256 667.5 256 C 630.7730607999999 256 601 241.6731136 601 224 Z" fill-opacity="0.2"/></g><g><path fill="#ffffff" stroke="none" paint-order="stroke fill markers" d=" M 594 217 C 594 199.3268864 623.7730607999999 185 660.5 185 C 697.2269392000001 185 727 199.3268864 727 217 C 727 234.6731136 697.2269392000001 249 660.5 249 C 623.7730607999999 249 594 234.6731136 594 217 Z"/></g><g><path fill="none" stroke="#000000" paint-order="fill stroke markers" d=" M 594 217 C 594 199.3268864 623.7730607999999 185 660.5 185 C 697.2269392000001 185 727 199.3268864 727 217 C 727 234.6731136 697.2269392000001 249 660.5 249 C 623.7730607999999 249 594 234.6731136 594 217 Z" stroke-miterlimit="10" stroke-dasharray=""/></g><g><g><path fill="none" stroke="none"/><text fill="#000000" stroke="none" font-family="Arial" font-size="13px" font-style="normal" font-weight="bold" text-decoration="undefined" x="690.5" y="209" text-anchor="middle" dominant-baseline="central" transform="matrix(1 0 0 1 -30 9)">external login</text></g></g><g><path fill="none" stroke="#000000" paint-order="fill stroke markers" d=" M 627 250 L 606 272" stroke-miterlimit="10" stroke-dasharray="3"/></g><g><path fill="none" stroke="#000000" paint-order="fill stroke markers" d=" M 609.9721025036246 261.7422028826507 L 606 272 L 616.0620585175944 267.55534271416747" stroke-miterlimit="10" stroke-dasharray=""/></g><g><rect fill="#ffffff" stroke="none" x="642" y="266" width="53.49169921875" height="13" transform="matrix(1 0 0 1 -30 9)"/></g><g><g><path fill="none" stroke="none"/><text fill="#000000" stroke="none" font-family="Arial" font-size="13px" font-style="normal" font-weight="normal" text-decoration="undefined" x="668.745849609375" y="272.5" text-anchor="middle" dominant-baseline="central" transform="matrix(1 0 0 1 -30 9)">«extend»</text></g></g><g><path fill="none" stroke="#000000" paint-order="fill stroke markers" d=" M 728 218 L 777 218" stroke-miterlimit="10" stroke-dasharray=""/></g><g><path fill="none" stroke="#000000" paint-order="fill stroke markers" d=" M 766.8373251423759 222.209517756016 L 777 218 L 766.8373251423758 213.790482243984" stroke-miterlimit="10" stroke-dasharray=""/></g></g></svg>